<?xml version="1.0" encoding="UTF-8" standalone="no"?>
<!DOCTYPE svg PUBLIC "-//W3C//DTD SVG 1.1//EN" "http://www.w3.org/Graphics/SVG/1.1/DTD/svg11.dtd">
<!-- Generated by Microsoft Visio, SVG Export git.repository.svg Page-1 -->
<svg xmlns="http://www.w3.org/2000/svg" xmlns:xlink="http://www.w3.org/1999/xlink" xmlns:ev="http://www.w3.org/2001/xml-events"
		xmlns:v="http://schemas.microsoft.com/visio/2003/SVGExtensions/" width="8.375in" height="3.56944in" viewBox="0 0 603 257"
		xml:space="preserve" color-interpolation-filters="sRGB" class="st23">
	<v:documentProperties v:langID="1033" v:viewMarkup="false"/>

	<style type="text/css">
	<![CDATA[
		.st1 {fill:#5b9bd5;stroke:#595959;stroke-width:2}
		.st2 {fill:#feffff;font-family:Calibri;font-size:0.833336em;font-weight:bold}
		.st3 {fill:#ffff00;stroke:#595959;stroke-width:2}
		.st4 {fill:#000000;font-family:Calibri;font-size:0.833336em;font-weight:bold}
		.st5 {fill:#d8d8d8;stroke:#595959;stroke-width:2}
		.st6 {marker-start:url(#mrkr2-24);stroke:#595959;stroke-linecap:round;stroke-linejoin:round;stroke-width:2}
		.st7 {fill:#595959;fill-opacity:1;stroke:#595959;stroke-opacity:1;stroke-width:0.44247787610619}
		.st8 {marker-end:url(#mrkr2-35);stroke:#595959;stroke-linecap:round;stroke-linejoin:round;stroke-width:2}
		.st9 {fill:#ffc000;stroke:#595959;stroke-width:2}
		.st10 {fill:#70ad47;stroke:#595959;stroke-width:2}
		.st11 {fill:#ff99ff;stroke:#595959;stroke-width:2}
		.st12 {fill:#ffffff;stroke:none;stroke-linecap:butt;stroke-width:7.2}
		.st13 {fill:none;stroke:none;stroke-width:0.25}
		.st14 {fill:#305497;font-family:Calibri;font-size:0.75em;font-weight:bold}
		.st15 {font-size:1em}
		.st16 {font-size:1em;text-decoration:underline}
		.st17 {fill:#ff66ff;font-family:Calibri;font-size:0.75em;font-weight:bold}
		.st18 {fill:#f4b183;stroke:#595959;stroke-width:2}
		.st19 {stroke:#305497;stroke-width:2}
		.st20 {fill:#305497;font-family:Calibri;font-size:1.00001em;font-weight:bold}
		.st21 {stroke:#c55a11;stroke-width:2}
		.st22 {fill:#c55a11;font-family:Calibri;font-size:1.00001em;font-weight:bold}
		.st23 {fill:none;fill-rule:evenodd;font-size:12px;overflow:visible;stroke-linecap:square;stroke-miterlimit:3}
	]]>
	</style>

	<defs id="Markers">
		<g id="lend2">
			<path d="M 1 1 L 0 0 L 1 -1 L 1 1 " style="stroke:none"/>
		</g>
		<marker id="mrkr2-24" class="st7" v:arrowType="2" v:arrowSize="2" v:setback="2.08" refX="2.08" orient="auto"
				markerUnits="strokeWidth" overflow="visible">
			<use xlink:href="#lend2" transform="scale(2.26) "/>
		</marker>
		<marker id="mrkr2-35" class="st7" v:arrowType="2" v:arrowSize="2" v:setback="2.26" refX="-2.26" orient="auto"
				markerUnits="strokeWidth" overflow="visible">
			<use xlink:href="#lend2" transform="scale(-2.26,-2.26) "/>
		</marker>
	</defs>
	<g v:mID="0" v:index="1" v:groupContext="foregroundPage">
		<title>Page-1</title>
		<v:pageProperties v:drawingScale="1" v:pageScale="1" v:drawingUnits="0" v:shadowOffsetX="9" v:shadowOffsetY="-9"/>
		<v:layer v:name="Connector" v:index="0"/>
		<g id="shape66-1" v:mID="66" v:groupContext="shape" transform="translate(123.5,-173.5)">
			<title>Rectangle.66</title>
			<desc>commit</desc>
			<v:userDefs>
				<v:ud v:nameU="visVersion" v:val="VT0(15):26"/>
			</v:userDefs>
			<v:textBlock v:margins="rect(4,4,4,4)"/>
			<v:textRect cx="27" cy="248" width="54" height="18"/>
			<rect x="0" y="239" width="54" height="18" rx="9" ry="9" class="st1"/>
			<text x="11.12" y="251" class="st2" v:langID="1042"><v:paragraph v:horizAlign="1"/><v:tabList/>commit</text>		</g>
		<g id="shape67-4" v:mID="67" v:groupContext="shape" transform="translate(218,-173.5)">
			<title>Rectangle.67</title>
			<desc>commit</desc>
			<v:userDefs>
				<v:ud v:nameU="visVersion" v:val="VT0(15):26"/>
			</v:userDefs>
			<v:textBlock v:margins="rect(4,4,4,4)"/>
			<v:textRect cx="27" cy="248" width="54" height="18"/>
			<rect x="0" y="239" width="54" height="18" rx="9" ry="9" class="st1"/>
			<text x="11.12" y="251" class="st2" v:langID="1042"><v:paragraph v:horizAlign="1"/><v:tabList/>commit</text>		</g>
		<g id="shape69-7" v:mID="69" v:groupContext="shape" transform="translate(314.75,-173.5)">
			<title>Rectangle.69</title>
			<desc>commit</desc>
			<v:userDefs>
				<v:ud v:nameU="visVersion" v:val="VT0(15):26"/>
			</v:userDefs>
			<v:textBlock v:margins="rect(4,4,4,4)"/>
			<v:textRect cx="27" cy="248" width="54" height="18"/>
			<rect x="0" y="239" width="54" height="18" rx="9" ry="9" class="st1"/>
			<text x="11.12" y="251" class="st2" v:langID="1042"><v:paragraph v:horizAlign="1"/><v:tabList/>commit</text>		</g>
		<g id="shape70-10" v:mID="70" v:groupContext="shape" transform="translate(409.25,-173.5)">
			<title>Rectangle.70</title>
			<desc>commit</desc>
			<v:userDefs>
				<v:ud v:nameU="visVersion" v:val="VT0(15):26"/>
			</v:userDefs>
			<v:textBlock v:margins="rect(4,4,4,4)"/>
			<v:textRect cx="27" cy="248" width="54" height="18"/>
			<rect x="0" y="239" width="54" height="18" rx="9" ry="9" class="st1"/>
			<text x="11.12" y="251" class="st2" v:langID="1042"><v:paragraph v:horizAlign="1"/><v:tabList/>commit</text>		</g>
		<g id="shape71-13" v:mID="71" v:groupContext="shape" transform="translate(409.25,-205)">
			<title>Rectangle.71</title>
			<desc>master</desc>
			<v:userDefs>
				<v:ud v:nameU="visVersion" v:val="VT0(15):26"/>
			</v:userDefs>
			<v:textBlock v:margins="rect(4,4,4,4)"/>
			<v:textRect cx="27" cy="248" width="54" height="18"/>
			<rect x="0" y="239" width="54" height="18" rx="9" ry="9" class="st3"/>
			<text x="12.44" y="251" class="st4" v:langID="1042"><v:paragraph v:horizAlign="1"/><v:tabList/>master</text>		</g>
		<g id="shape72-16" v:mID="72" v:groupContext="shape" transform="translate(409.25,-236.5)">
			<title>Rectangle.72</title>
			<desc>HEAD</desc>
			<v:userDefs>
				<v:ud v:nameU="visVersion" v:val="VT0(15):26"/>
			</v:userDefs>
			<v:textBlock v:margins="rect(4,4,4,4)"/>
			<v:textRect cx="27" cy="248" width="54" height="18"/>
			<rect x="0" y="239" width="54" height="18" rx="9" ry="9" class="st5"/>
			<text x="15.23" y="251" class="st4" v:langID="1042"><v:paragraph v:horizAlign="1"/><v:tabList/>HEAD</text>		</g>
		<g id="shape73-19" v:mID="73" v:groupContext="shape" v:layerMember="0" transform="translate(177.5,-173.5)">
			<title>Dynamic connector.73</title>
			<path d="M4.16 248 L4.52 248 L40.5 248" class="st6"/>
		</g>
		<g id="shape74-25" v:mID="74" v:groupContext="shape" v:layerMember="0" transform="translate(272,-173.5)">
			<title>Dynamic connector.74</title>
			<path d="M4.16 248 L4.52 248 L42.75 248" class="st6"/>
		</g>
		<g id="shape76-30" v:mID="76" v:groupContext="shape" v:layerMember="0" transform="translate(427.25,-207.25)">
			<title>Dynamic connector.76</title>
			<path d="M9 259.25 L9 268.23" class="st8"/>
		</g>
		<g id="shape77-36" v:mID="77" v:groupContext="shape" v:layerMember="0" transform="translate(427.25,-238.75)">
			<title>Dynamic connector.77</title>
			<path d="M9 259.25 L9 268.23" class="st8"/>
		</g>
		<g id="shape78-41" v:mID="78" v:groupContext="shape" transform="translate(409.25,-108.25)">
			<title>Rectangle.78</title>
			<desc>tree</desc>
			<v:userDefs>
				<v:ud v:nameU="visVersion" v:val="VT0(15):26"/>
			</v:userDefs>
			<v:textBlock v:margins="rect(4,4,4,4)"/>
			<v:textRect cx="27" cy="248" width="54" height="18"/>
			<rect x="0" y="239" width="54" height="18" rx="9" ry="9" class="st9"/>
			<text x="18.46" y="251" class="st4" v:langID="1042"><v:paragraph v:horizAlign="1"/><v:tabList/>tree</text>		</g>
		<g id="shape79-44" v:mID="79" v:groupContext="shape" transform="translate(311.375,-67.75)">
			<title>Rectangle.79</title>
			<desc>blob</desc>
			<v:userDefs>
				<v:ud v:nameU="visVersion" v:val="VT0(15):26"/>
			</v:userDefs>
			<v:textBlock v:margins="rect(4,4,4,4)"/>
			<v:textRect cx="27" cy="248" width="54" height="18"/>
			<rect x="0" y="239" width="54" height="18" rx="9" ry="9" class="st10"/>
			<text x="17.72" y="251" class="st2" v:langID="1042"><v:paragraph v:horizAlign="1"/><v:tabList/>blob</text>		</g>
		<g id="shape80-47" v:mID="80" v:groupContext="shape" transform="translate(376.625,-67.75)">
			<title>Rectangle.80</title>
			<desc>blob</desc>
			<v:userDefs>
				<v:ud v:nameU="visVersion" v:val="VT0(15):26"/>
			</v:userDefs>
			<v:textBlock v:margins="rect(4,4,4,4)"/>
			<v:textRect cx="27" cy="248" width="54" height="18"/>
			<rect x="0" y="239" width="54" height="18" rx="9" ry="9" class="st10"/>
			<text x="17.72" y="251" class="st2" v:langID="1042"><v:paragraph v:horizAlign="1"/><v:tabList/>blob</text>		</g>
		<g id="shape81-50" v:mID="81" v:groupContext="shape" transform="translate(441.875,-67.75)">
			<title>Rectangle.81</title>
			<desc>blob</desc>
			<v:userDefs>
				<v:ud v:nameU="visVersion" v:val="VT0(15):26"/>
			</v:userDefs>
			<v:textBlock v:margins="rect(4,4,4,4)"/>
			<v:textRect cx="27" cy="248" width="54" height="18"/>
			<rect x="0" y="239" width="54" height="18" rx="9" ry="9" class="st10"/>
			<text x="17.72" y="251" class="st2" v:langID="1042"><v:paragraph v:horizAlign="1"/><v:tabList/>blob</text>		</g>
		<g id="shape82-53" v:mID="82" v:groupContext="shape" transform="translate(507.125,-67.75)">
			<title>Rectangle.82</title>
			<desc>tree</desc>
			<v:userDefs>
				<v:ud v:nameU="visVersion" v:val="VT0(15):26"/>
			</v:userDefs>
			<v:textBlock v:margins="rect(4,4,4,4)"/>
			<v:textRect cx="27" cy="248" width="54" height="18"/>
			<rect x="0" y="239" width="54" height="18" rx="9" ry="9" class="st9"/>
			<text x="18.46" y="251" class="st4" v:langID="1042"><v:paragraph v:horizAlign="1"/><v:tabList/>tree</text>		</g>
		<g id="shape83-56" v:mID="83" v:groupContext="shape" transform="translate(507.125,-36.25)">
			<title>Rectangle.83</title>
			<desc>blob</desc>
			<v:userDefs>
				<v:ud v:nameU="visVersion" v:val="VT0(15):26"/>
			</v:userDefs>
			<v:textBlock v:margins="rect(4,4,4,4)"/>
			<v:textRect cx="27" cy="248" width="54" height="18"/>
			<rect x="0" y="239" width="54" height="18" rx="9" ry="9" class="st10"/>
			<text x="17.72" y="251" class="st2" v:langID="1042"><v:paragraph v:horizAlign="1"/><v:tabList/>blob</text>		</g>
		<g id="shape84-59" v:mID="84" v:groupContext="shape" v:layerMember="0" transform="translate(427.25,-173.5)">
			<title>Dynamic connector.84</title>
			<path d="M9 257 L9 299.73" class="st8"/>
		</g>
		<g id="shape85-64" v:mID="85" v:groupContext="shape" transform="translate(265.25,-142)">
			<title>Rectangle.85</title>
			<desc>commit</desc>
			<v:userDefs>
				<v:ud v:nameU="visVersion" v:val="VT0(15):26"/>
			</v:userDefs>
			<v:textBlock v:margins="rect(4,4,4,4)"/>
			<v:textRect cx="27" cy="248" width="54" height="18"/>
			<rect x="0" y="239" width="54" height="18" rx="9" ry="9" class="st11"/>
			<text x="11.12" y="251" class="st4" v:langID="1042"><v:paragraph v:horizAlign="1"/><v:tabList/>commit</text>		</g>
		<g id="shape89-67" v:mID="89" v:groupContext="shape" transform="translate(170.75,-142)">
			<title>Rectangle.89</title>
			<desc>commit</desc>
			<v:userDefs>
				<v:ud v:nameU="visVersion" v:val="VT0(15):26"/>
			</v:userDefs>
			<v:textBlock v:margins="rect(4,4,4,4)"/>
			<v:textRect cx="27" cy="248" width="54" height="18"/>
			<rect x="0" y="239" width="54" height="18" rx="9" ry="9" class="st11"/>
			<text x="11.12" y="251" class="st4" v:langID="1042"><v:paragraph v:horizAlign="1"/><v:tabList/>commit</text>		</g>
		<g id="shape90-70" v:mID="90" v:groupContext="shape" transform="translate(29,-173.5)">
			<title>Rectangle.90</title>
			<desc>commit</desc>
			<v:userDefs>
				<v:ud v:nameU="visVersion" v:val="VT0(15):26"/>
			</v:userDefs>
			<v:textBlock v:margins="rect(4,4,4,4)"/>
			<v:textRect cx="27" cy="248" width="54" height="18"/>
			<rect x="0" y="239" width="54" height="18" rx="9" ry="9" class="st1"/>
			<text x="11.12" y="251" class="st2" v:langID="1042"><v:paragraph v:horizAlign="1"/><v:tabList/>commit</text>		</g>
		<g id="shape91-73" v:mID="91" v:groupContext="shape" v:layerMember="0" transform="translate(83,-173.5)">
			<title>Dynamic connector.91</title>
			<path d="M4.16 248 L4.52 248 L40.5 248" class="st6"/>
		</g>
		<g id="shape92-78" v:mID="92" v:groupContext="shape" v:layerMember="0" transform="translate(83,-182.5)">
			<title>Dynamic connector.92</title>
			<path d="M4.16 257 L4.52 257 L10.12 257 A10.125 10.125 0 0 1 20.25 267.12 L20.25 270.5 A18 18 -180 0 0 38.25 288.5 L87.75
						 288.5" class="st6"/>
		</g>
		<g id="shape93-83" v:mID="93" v:groupContext="shape" v:layerMember="0" transform="translate(224.75,-142)">
			<title>Dynamic connector.93</title>
			<path d="M4.16 248 L4.52 248 L40.5 248" class="st6"/>
		</g>
		<g id="shape94-88" v:mID="94" v:groupContext="shape" v:layerMember="0" transform="translate(319.25,-151)">
			<title>Dynamic connector.94</title>
			<desc>parent</desc>
			<v:textBlock v:margins="rect(4,4,4,4)"/>
			<v:textRect cx="36" cy="249.125" width="50" height="20.0036"/>
			<path d="M4.16 257 L4.52 257 L56.25 257 A15.75 15.75 -180 0 0 72 241.25 L72 234.5 A9 9 0 0 1 81 225.5 L90 225.5"
					class="st6"/>
			<rect v:rectContext="textBkgnd" x="22.1377" y="243.125" width="27.7245" height="12.0001" class="st12"/>
			<text x="22.14" y="252.13" class="st4" v:langID="1042"><v:paragraph v:horizAlign="1"/><v:tabList/>parent</text>		</g>
		<g id="shape75-95" v:mID="75" v:groupContext="shape" v:layerMember="0" transform="translate(368.75,-173.5)">
			<title>Dynamic connector.75</title>
			<desc>parent</desc>
			<v:textBlock v:margins="rect(4,4,4,4)"/>
			<v:textRect cx="21.375" cy="240.125" width="50" height="20.0036"/>
			<path d="M4.16 248 L4.52 248 L40.5 248" class="st6"/>
			<rect v:rectContext="textBkgnd" x="7.51268" y="234.125" width="27.7245" height="12.0001" class="st12"/>
			<text x="7.51" y="243.13" class="st4" v:langID="1042"><v:paragraph v:horizAlign="1"/><v:tabList/>parent</text>		</g>
		<g id="shape97-102" v:mID="97" v:groupContext="shape" v:layerMember="0" transform="translate(436.25,-108.25)">
			<title>Dynamic connector.97</title>
			<path d="M0 257 L0 261.12 A4.125 4.125 0 0 1 -4.12 265.25 L-90.75 265.25 A7.125 7.125 -180 0 0 -97.87 272.37 L-97.87
						 274.98" class="st8"/>
		</g>
		<g id="shape98-107" v:mID="98" v:groupContext="shape" v:layerMember="0" transform="translate(436.25,-108.25)">
			<title>Dynamic connector.98</title>
			<path d="M0 257 L0 261.12 A4.125 4.125 0 0 1 -4.12 265.25 L-25.5 265.25 A7.125 7.125 -180 0 0 -32.62 272.37 L-32.62 274.98"
					class="st8"/>
		</g>
		<g id="shape99-112" v:mID="99" v:groupContext="shape" v:layerMember="0" transform="translate(436.25,-108.25)">
			<title>Dynamic connector.99</title>
			<path d="M0 257 L0 261.31 A4.3125 4.3125 -180 0 0 4.31 265.62 L25.69 265.62 A6.9375 6.9375 0 0 1 32.62 272.56 L32.62
						 274.98" class="st8"/>
		</g>
		<g id="shape100-117" v:mID="100" v:groupContext="shape" v:layerMember="0" transform="translate(436.25,-108.25)">
			<title>Dynamic connector.100</title>
			<path d="M0 257 L0 261.31 A4.3125 4.3125 -180 0 0 4.31 265.62 L90.94 265.62 A6.9375 6.9375 0 0 1 97.87 272.56 L97.87
						 274.98" class="st8"/>
		</g>
		<g id="shape101-122" v:mID="101" v:groupContext="shape" v:layerMember="0" transform="translate(525.125,-70)">
			<title>Dynamic connector.101</title>
			<path d="M9 259.25 L9 268.23" class="st8"/>
		</g>
		<g id="shape102-127" v:mID="102" v:groupContext="shape" transform="translate(314.75,-196)">
			<title>Sheet.102</title>
			<desc>HEAD^ = HEAD^1 = HEAD~1</desc>
			<v:textBlock v:margins="rect(4,4,4,4)"/>
			<v:textRect cx="27" cy="239" width="54" height="36"/>
			<rect x="0" y="221" width="54" height="36" class="st13"/>
			<text x="4" y="230.9" class="st14" v:langID="1042"><v:paragraph/><v:tabList/>HEAD^<v:newlineChar/><tspan x="4"
						dy="1.2em" class="st15">= HEAD^1<v:newlineChar/></tspan><tspan x="4" dy="1.2em" class="st15">= </tspan><tspan
						class="st16">HEAD~1</tspan></text>		</g>
		<g id="shape105-133" v:mID="105" v:groupContext="shape" transform="translate(170.75,-112.75)">
			<title>Sheet.105</title>
			<desc>HEAD^2^ = HEAD^2^1</desc>
			<v:textBlock v:margins="rect(4,4,4,4)"/>
			<v:textRect cx="27" cy="243.5" width="54" height="27"/>
			<rect x="0" y="230" width="54" height="27" class="st13"/>
			<text x="4" y="240.8" class="st17" v:langID="1042"><v:paragraph/><v:tabList/>HEAD^2^<v:newlineChar/><tspan x="4"
						dy="1.2em" class="st15">= HEAD^2^1</tspan></text>		</g>
		<g id="shape106-137" v:mID="106" v:groupContext="shape" transform="translate(218,-196)">
			<title>Sheet.106</title>
			<desc>HEAD^^ = HEAD^1^1 = HEAD~2</desc>
			<v:textBlock v:margins="rect(4,4,4,4)"/>
			<v:textRect cx="27" cy="239" width="54" height="36"/>
			<rect x="0" y="221" width="54" height="36" class="st13"/>
			<text x="4" y="230.9" class="st14" v:langID="1042"><v:paragraph/><v:tabList/>HEAD^^<v:newlineChar/><tspan x="4"
						dy="1.2em" class="st15">= HEAD^1^1<v:newlineChar/></tspan><tspan x="4" dy="1.2em" class="st15">= </tspan><tspan
						class="st16">HEAD~2</tspan></text>		</g>
		<g id="shape107-143" v:mID="107" v:groupContext="shape" transform="translate(265.25,-120.625)">
			<title>Sheet.107</title>
			<desc>HEAD^2</desc>
			<v:textBlock v:margins="rect(4,4,4,4)"/>
			<v:textRect cx="27" cy="246.312" width="54" height="21.375"/>
			<rect x="0" y="235.625" width="54" height="21.375" class="st13"/>
			<text x="4" y="249.01" class="st17" v:langID="1042"><v:paragraph/><v:tabList/>HEAD^2</text>		</g>
		<g id="shape108-146" v:mID="108" v:groupContext="shape" transform="translate(128,-196)">
			<title>Sheet.108</title>
			<desc>HEAD^^^ = HEAD~3</desc>
			<v:textBlock v:margins="rect(4,4,4,4)"/>
			<v:textRect cx="27" cy="243.5" width="54" height="27"/>
			<rect x="0" y="230" width="54" height="27" class="st13"/>
			<text x="4" y="240.8" class="st14" v:langID="1042"><v:paragraph/><v:tabList/>HEAD^^^<v:newlineChar/><tspan x="4"
						dy="1.2em" class="st15">= </tspan><tspan class="st16">HEAD~3</tspan></text>		</g>
		<g id="shape109-151" v:mID="109" v:groupContext="shape" transform="translate(29,-196)">
			<title>Sheet.109</title>
			<desc>HEAD^^^^ = HEAD~4</desc>
			<v:textBlock v:margins="rect(4,4,4,4)"/>
			<v:textRect cx="27" cy="243.5" width="54" height="27"/>
			<rect x="0" y="230" width="54" height="27" class="st13"/>
			<text x="4" y="240.8" class="st14" v:langID="1042"><v:paragraph/><v:tabList/>HEAD^^^^<v:newlineChar/><tspan x="4"
						dy="1.2em" class="st15">= </tspan><tspan class="st16">HEAD~4</tspan></text>		</g>
		<g id="shape112-156" v:mID="112" v:groupContext="shape" transform="translate(123.5,-70)">
			<title>Rectangle.112</title>
			<desc>commit</desc>
			<v:userDefs>
				<v:ud v:nameU="visVersion" v:val="VT0(15):26"/>
			</v:userDefs>
			<v:textBlock v:margins="rect(4,4,4,4)"/>
			<v:textRect cx="27" cy="248" width="54" height="18"/>
			<rect x="0" y="239" width="54" height="18" rx="9" ry="9" class="st1"/>
			<text x="11.12" y="251" class="st2" v:langID="1042"><v:paragraph v:horizAlign="1"/><v:tabList/>commit</text>		</g>
		<g id="shape113-159" v:mID="113" v:groupContext="shape" v:layerMember="0" transform="translate(177.5,-79)">
			<title>Dynamic connector.113</title>
			<path d="M4.16 257 L4.52 257 L9 257 A9 9 -180 0 0 18 248 L18 248 A18 18 -180 0 0 0 230 L-148.5 230 A18 18 0 0 1 -166.5
						 212 L-166.5 162.5 A9 9 0 0 1 -157.5 153.5 L-148.5 153.5" class="st6"/>
		</g>
		<g id="shape117-164" v:mID="117" v:groupContext="shape" transform="translate(29,-70)">
			<title>Rectangle.117</title>
			<desc>commit</desc>
			<v:userDefs>
				<v:ud v:nameU="visVersion" v:val="VT0(15):26"/>
			</v:userDefs>
			<v:textBlock v:margins="rect(4,4,4,4)"/>
			<v:textRect cx="27" cy="248" width="54" height="18"/>
			<rect x="0" y="239" width="54" height="18" rx="9" ry="9" class="st1"/>
			<text x="11.12" y="251" class="st2" v:langID="1042"><v:paragraph v:horizAlign="1"/><v:tabList/>commit</text>		</g>
		<g id="shape118-167" v:mID="118" v:groupContext="shape" v:layerMember="0" transform="translate(83,-70)">
			<title>Dynamic connector.118</title>
			<path d="M4.16 248 L4.52 248 L40.5 248" class="st6"/>
		</g>
		<g id="shape119-172" v:mID="119" v:groupContext="shape" transform="translate(123.5,-2.5)">
			<title>Rectangle.114</title>
			<desc>commit</desc>
			<v:userDefs>
				<v:ud v:nameU="visVersion" v:val="VT0(15):26"/>
			</v:userDefs>
			<v:textBlock v:margins="rect(4,4,4,4)"/>
			<v:textRect cx="27" cy="248" width="54" height="18"/>
			<rect x="0" y="239" width="54" height="18" rx="9" ry="9" class="st18"/>
			<text x="11.12" y="251" class="st4" v:langID="1042"><v:paragraph v:horizAlign="1"/><v:tabList/>commit</text>		</g>
		<g id="shape120-175" v:mID="120" v:groupContext="shape" v:layerMember="0" transform="translate(83,-79)">
			<title>Dynamic connector.115</title>
			<path d="M4.16 257 L4.52 257 L9 257 A9 9 0 0 1 18 266 L18 313.25 A11.25 11.25 -180 0 0 29.25 324.5 L40.5 324.5"
					class="st6"/>
		</g>
		<g id="shape121-180" v:mID="121" v:groupContext="shape" transform="translate(218,-2.5)">
			<title>Rectangle.121</title>
			<desc>commit</desc>
			<v:userDefs>
				<v:ud v:nameU="visVersion" v:val="VT0(15):26"/>
			</v:userDefs>
			<v:textBlock v:margins="rect(4,4,4,4)"/>
			<v:textRect cx="27" cy="248" width="54" height="18"/>
			<rect x="0" y="239" width="54" height="18" rx="9" ry="9" class="st18"/>
			<text x="11.12" y="251" class="st4" v:langID="1042"><v:paragraph v:horizAlign="1"/><v:tabList/>commit</text>		</g>
		<g id="shape122-183" v:mID="122" v:groupContext="shape" v:layerMember="0" transform="translate(177.5,-2.5)">
			<title>Dynamic connector.122</title>
			<desc>parent</desc>
			<v:textBlock v:margins="rect(4,4,4,4)"/>
			<v:textRect cx="21.375" cy="240.125" width="50" height="20.0036"/>
			<path d="M4.16 248 L4.52 248 L40.5 248" class="st6"/>
			<rect v:rectContext="textBkgnd" x="7.51266" y="234.125" width="27.7245" height="12.0001" class="st12"/>
			<text x="7.51" y="243.13" class="st4" v:langID="1042"><v:paragraph v:horizAlign="1"/><v:tabList/>parent</text>		</g>
		<g id="shape123-190" v:mID="123" v:groupContext="shape" transform="translate(218,-36.25)">
			<title>Rectangle.123</title>
			<desc>feature</desc>
			<v:userDefs>
				<v:ud v:nameU="visVersion" v:val="VT0(15):26"/>
			</v:userDefs>
			<v:textBlock v:margins="rect(4,4,4,4)"/>
			<v:textRect cx="27" cy="248" width="54" height="18"/>
			<rect x="0" y="239" width="54" height="18" rx="9" ry="9" class="st3"/>
			<text x="11.72" y="251" class="st4" v:langID="1042"><v:paragraph v:horizAlign="1"/><v:tabList/>feature</text>		</g>
		<g id="shape126-193" v:mID="126" v:groupContext="shape" v:layerMember="0" transform="translate(236,-37.375)">
			<title>Dynamic connector.126</title>
			<path d="M9 258.12 L9 269.35" class="st8"/>
		</g>
		<g id="shape129-198" v:mID="129" v:groupContext="shape" transform="translate(466.625,-173.5)">
			<title>Right Parenthesis</title>
			<v:userDefs>
				<v:ud v:nameU="visVersion" v:prompt="" v:val="VT0(15):26"/>
			</v:userDefs>
			<path d="M0 257 A10.8053 2.2382 -180 0 0 10.13 255.32 L10.13 241.9 A10.8053 2.2382 -180 0 0 0 240.22" class="st19"/>
		</g>
		<g id="shape130-201" v:mID="130" v:groupContext="shape" transform="translate(476.75,-170.639)">
			<title>Sheet.130</title>
			<desc>master branch</desc>
			<v:textBlock v:margins="rect(4,4,4,4)"/>
			<v:textRect cx="41.0625" cy="245.75" width="82.13" height="22.5"/>
			<rect x="0" y="234.5" width="82.125" height="22.5" class="st13"/>
			<text x="4.97" y="249.35" class="st20" v:langID="1042"><v:paragraph v:horizAlign="1"/><v:tabList/>master branch</text>		</g>
		<g id="shape132-204" v:mID="132" v:groupContext="shape" transform="translate(275.375,-3.11084)">
			<title>Right Parenthesis.132</title>
			<v:userDefs>
				<v:ud v:nameU="visVersion" v:prompt="" v:val="VT0(15):26"/>
			</v:userDefs>
			<path d="M0 257 A10.8053 2.2382 -180 0 0 10.13 255.32 L10.13 241.9 A10.8053 2.2382 -180 0 0 0 240.22" class="st21"/>
		</g>
		<g id="shape133-207" v:mID="133" v:groupContext="shape" transform="translate(285.5,-0.25)">
			<title>Sheet.133</title>
			<desc>feature branch</desc>
			<v:textBlock v:margins="rect(4,4,4,4)"/>
			<v:textRect cx="41.0625" cy="245.75" width="82.13" height="22.5"/>
			<rect x="0" y="234.5" width="82.125" height="22.5" class="st13"/>
			<text x="4.11" y="249.35" class="st22" v:langID="1042"><v:paragraph v:horizAlign="1"/><v:tabList/>feature branch</text>		</g>
		<g id="shape135-210" v:mID="135" v:groupContext="shape" v:layerMember="0" transform="translate(11,-70)">
			<title>Dynamic connector.135</title>
			<path d="M4.16 248 L4.52 248 L18 248" class="st6"/>
		</g>
		<g id="shape170-215" v:mID="170" v:groupContext="shape" transform="translate(466.625,-205.611)">
			<title>Right Parenthesis.170</title>
			<v:userDefs>
				<v:ud v:nameU="visVersion" v:prompt="" v:val="VT0(15):26"/>
			</v:userDefs>
			<path d="M0 257 A10.8053 2.2382 -180 0 0 10.13 255.32 L10.13 241.9 A10.8053 2.2382 -180 0 0 0 240.22" class="st19"/>
		</g>
		<g id="shape171-218" v:mID="171" v:groupContext="shape" transform="translate(476.75,-202.75)">
			<title>Sheet.171</title>
			<desc>.git/refs/heads/master</desc>
			<v:textBlock v:margins="rect(4,4,4,4)"/>
			<v:textRect cx="63" cy="245.75" width="126" height="22.5"/>
			<rect x="0" y="234.5" width="126" height="22.5" class="st13"/>
			<text x="5.53" y="249.35" class="st20" v:langID="1042"><v:paragraph v:horizAlign="1"/><v:tabList/>.git/refs/heads/master</text>		</g>
		<g id="shape172-221" v:mID="172" v:groupContext="shape" transform="translate(466.625,-237.111)">
			<title>Right Parenthesis.172</title>
			<v:userDefs>
				<v:ud v:nameU="visVersion" v:prompt="" v:val="VT0(15):26"/>
			</v:userDefs>
			<path d="M0 257 A10.8053 2.2382 -180 0 0 10.13 255.32 L10.13 241.9 A10.8053 2.2382 -180 0 0 0 240.22" class="st19"/>
		</g>
		<g id="shape173-224" v:mID="173" v:groupContext="shape" transform="translate(476.75,-234.25)">
			<title>Sheet.173</title>
			<desc>Head of current branch</desc>
			<v:textBlock v:margins="rect(4,4,4,4)"/>
			<v:textRect cx="63" cy="245.75" width="126" height="22.5"/>
			<rect x="0" y="234.5" width="126" height="22.5" class="st13"/>
			<text x="5.24" y="249.35" class="st20" v:langID="1042"><v:paragraph v:horizAlign="1"/><v:tabList/>Head of current branch</text>		</g>
		<g id="shape174-227" v:mID="174" v:groupContext="shape" transform="translate(275.375,-36.8608)">
			<title>Right Parenthesis.174</title>
			<v:userDefs>
				<v:ud v:nameU="visVersion" v:prompt="" v:val="VT0(15):26"/>
			</v:userDefs>
			<path d="M0 257 A10.8053 2.2382 -180 0 0 10.13 255.32 L10.13 241.9 A10.8053 2.2382 -180 0 0 0 240.22" class="st21"/>
		</g>
		<g id="shape175-230" v:mID="175" v:groupContext="shape" transform="translate(285.5,-34)">
			<title>Sheet.175</title>
			<desc>.git/refs/heads/feature</desc>
			<v:textBlock v:margins="rect(4,4,4,4)"/>
			<v:textRect cx="63" cy="245.75" width="126" height="22.5"/>
			<rect x="0" y="234.5" width="126" height="22.5" class="st13"/>
			<text x="4.67" y="249.35" class="st22" v:langID="1042"><v:paragraph v:horizAlign="1"/><v:tabList/>.git/refs/heads/feature</text>		</g>
	</g>
</svg>
