<?xml version="1.0" encoding="UTF-8" standalone="no"?>
<!DOCTYPE svg PUBLIC "-//W3C//DTD SVG 1.1//EN" "http://www.w3.org/Graphics/SVG/1.1/DTD/svg11.dtd">
<!-- Generated by Microsoft Visio, SVG Export git.repository.svg Page-1 -->
<svg xmlns="http://www.w3.org/2000/svg" xmlns:xlink="http://www.w3.org/1999/xlink" xmlns:ev="http://www.w3.org/2001/xml-events"
		xmlns:v="http://schemas.microsoft.com/visio/2003/SVGExtensions/" width="8.86806in" height="3.5625in"
		viewBox="0 0 638.5 256.5" xml:space="preserve" color-interpolation-filters="sRGB" class="st24">
	<v:documentProperties v:langID="1033" v:viewMarkup="false"/>

	<style type="text/css">
	<![CDATA[
		.st1 {fill:#ffffff;fill-opacity:0;stroke:#7f7f7f;stroke-dasharray:0.01,10;stroke-width:2}
		.st2 {fill:#5b9bd5;stroke:#595959;stroke-width:2}
		.st3 {fill:#feffff;font-family:Calibri;font-size:0.833336em;font-weight:bold}
		.st4 {fill:#ffff00;stroke:#595959;stroke-width:2}
		.st5 {fill:#000000;font-family:Calibri;font-size:0.833336em;font-weight:bold}
		.st6 {fill:#d8d8d8;stroke:#595959;stroke-width:2}
		.st7 {marker-start:url(#mrkr2-26);stroke:#595959;stroke-linecap:round;stroke-linejoin:round;stroke-width:2}
		.st8 {fill:#595959;fill-opacity:1;stroke:#595959;stroke-opacity:1;stroke-width:0.44247787610619}
		.st9 {marker-end:url(#mrkr2-37);stroke:#595959;stroke-linecap:round;stroke-linejoin:round;stroke-width:2}
		.st10 {fill:#ffc000;stroke:#595959;stroke-width:2}
		.st11 {fill:#70ad47;stroke:#595959;stroke-width:2}
		.st12 {fill:#ff99ff;stroke:#595959;stroke-width:2}
		.st13 {fill:#ffffff;stroke:none;stroke-linecap:butt;stroke-width:7.2}
		.st14 {fill:none;stroke:none;stroke-width:0.25}
		.st15 {fill:#305497;font-family:Calibri;font-size:0.75em;font-weight:bold}
		.st16 {font-size:1em}
		.st17 {font-size:1em;text-decoration:underline}
		.st18 {fill:#ff66ff;font-family:Calibri;font-size:0.75em;font-weight:bold}
		.st19 {fill:#f4b183;stroke:#595959;stroke-width:2}
		.st20 {stroke:#305497;stroke-width:2}
		.st21 {fill:#305497;font-family:Calibri;font-size:1.00001em;font-weight:bold}
		.st22 {stroke:#c55a11;stroke-width:2}
		.st23 {fill:#c55a11;font-family:Calibri;font-size:1.00001em;font-weight:bold}
		.st24 {fill:none;fill-rule:evenodd;font-size:12px;overflow:visible;stroke-linecap:square;stroke-miterlimit:3}
	]]>
	</style>

	<defs id="Markers">
		<g id="lend2">
			<path d="M 1 1 L 0 0 L 1 -1 L 1 1 " style="stroke:none"/>
		</g>
		<marker id="mrkr2-26" class="st8" v:arrowType="2" v:arrowSize="2" v:setback="2.08" refX="2.08" orient="auto"
				markerUnits="strokeWidth" overflow="visible">
			<use xlink:href="#lend2" transform="scale(2.26) "/>
		</marker>
		<marker id="mrkr2-37" class="st8" v:arrowType="2" v:arrowSize="2" v:setback="2.26" refX="-2.26" orient="auto"
				markerUnits="strokeWidth" overflow="visible">
			<use xlink:href="#lend2" transform="scale(-2.26,-2.26) "/>
		</marker>
	</defs>
	<g v:mID="0" v:index="1" v:groupContext="foregroundPage">
		<title>Page-1</title>
		<v:pageProperties v:drawingScale="1" v:pageScale="1" v:drawingUnits="0" v:shadowOffsetX="9" v:shadowOffsetY="-9"/>
		<v:layer v:name="Connector" v:index="0"/>
		<g id="shape166-1" v:mID="166" v:groupContext="shape" transform="translate(371,-29.5)">
			<title>Rectangle.166</title>
			<v:userDefs>
				<v:ud v:nameU="visVersion" v:val="VT0(15):26"/>
			</v:userDefs>
			<rect x="0" y="148.5" width="265.5" height="108" rx="18" ry="18" class="st1"/>
		</g>
		<g id="shape66-3" v:mID="66" v:groupContext="shape" transform="translate(191,-173.5)">
			<title>Rectangle.66</title>
			<desc>commit</desc>
			<v:userDefs>
				<v:ud v:nameU="visVersion" v:val="VT0(15):26"/>
			</v:userDefs>
			<v:textBlock v:margins="rect(4,4,4,4)"/>
			<v:textRect cx="27" cy="247.5" width="54" height="18"/>
			<rect x="0" y="238.5" width="54" height="18" rx="9" ry="9" class="st2"/>
			<text x="11.12" y="250.5" class="st3" v:langID="1042"><v:paragraph v:horizAlign="1"/><v:tabList/>commit</text>		</g>
		<g id="shape67-6" v:mID="67" v:groupContext="shape" transform="translate(285.5,-173.5)">
			<title>Rectangle.67</title>
			<desc>commit</desc>
			<v:userDefs>
				<v:ud v:nameU="visVersion" v:val="VT0(15):26"/>
			</v:userDefs>
			<v:textBlock v:margins="rect(4,4,4,4)"/>
			<v:textRect cx="27" cy="247.5" width="54" height="18"/>
			<rect x="0" y="238.5" width="54" height="18" rx="9" ry="9" class="st2"/>
			<text x="11.12" y="250.5" class="st3" v:langID="1042"><v:paragraph v:horizAlign="1"/><v:tabList/>commit</text>		</g>
		<g id="shape69-9" v:mID="69" v:groupContext="shape" transform="translate(382.25,-173.5)">
			<title>Rectangle.69</title>
			<desc>commit</desc>
			<v:userDefs>
				<v:ud v:nameU="visVersion" v:val="VT0(15):26"/>
			</v:userDefs>
			<v:textBlock v:margins="rect(4,4,4,4)"/>
			<v:textRect cx="27" cy="247.5" width="54" height="18"/>
			<rect x="0" y="238.5" width="54" height="18" rx="9" ry="9" class="st2"/>
			<text x="11.12" y="250.5" class="st3" v:langID="1042"><v:paragraph v:horizAlign="1"/><v:tabList/>commit</text>		</g>
		<g id="shape70-12" v:mID="70" v:groupContext="shape" transform="translate(476.75,-173.5)">
			<title>Rectangle.70</title>
			<desc>commit</desc>
			<v:userDefs>
				<v:ud v:nameU="visVersion" v:val="VT0(15):26"/>
			</v:userDefs>
			<v:textBlock v:margins="rect(4,4,4,4)"/>
			<v:textRect cx="27" cy="247.5" width="54" height="18"/>
			<rect x="0" y="238.5" width="54" height="18" rx="9" ry="9" class="st2"/>
			<text x="11.12" y="250.5" class="st3" v:langID="1042"><v:paragraph v:horizAlign="1"/><v:tabList/>commit</text>		</g>
		<g id="shape71-15" v:mID="71" v:groupContext="shape" transform="translate(476.75,-205)">
			<title>Rectangle.71</title>
			<desc>master</desc>
			<v:userDefs>
				<v:ud v:nameU="visVersion" v:val="VT0(15):26"/>
			</v:userDefs>
			<v:textBlock v:margins="rect(4,4,4,4)"/>
			<v:textRect cx="27" cy="247.5" width="54" height="18"/>
			<rect x="0" y="238.5" width="54" height="18" rx="9" ry="9" class="st4"/>
			<text x="12.44" y="250.5" class="st5" v:langID="1042"><v:paragraph v:horizAlign="1"/><v:tabList/>master</text>		</g>
		<g id="shape72-18" v:mID="72" v:groupContext="shape" transform="translate(476.75,-236.5)">
			<title>Rectangle.72</title>
			<desc>HEAD</desc>
			<v:userDefs>
				<v:ud v:nameU="visVersion" v:val="VT0(15):26"/>
			</v:userDefs>
			<v:textBlock v:margins="rect(4,4,4,4)"/>
			<v:textRect cx="27" cy="247.5" width="54" height="18"/>
			<rect x="0" y="238.5" width="54" height="18" rx="9" ry="9" class="st6"/>
			<text x="15.23" y="250.5" class="st5" v:langID="1042"><v:paragraph v:horizAlign="1"/><v:tabList/>HEAD</text>		</g>
		<g id="shape73-21" v:mID="73" v:groupContext="shape" v:layerMember="0" transform="translate(245,-173.5)">
			<title>Dynamic connector.73</title>
			<path d="M4.16 247.5 L4.52 247.5 L40.5 247.5" class="st7"/>
		</g>
		<g id="shape74-27" v:mID="74" v:groupContext="shape" v:layerMember="0" transform="translate(339.5,-173.5)">
			<title>Dynamic connector.74</title>
			<path d="M4.16 247.5 L4.52 247.5 L42.75 247.5" class="st7"/>
		</g>
		<g id="shape76-32" v:mID="76" v:groupContext="shape" v:layerMember="0" transform="translate(494.75,-207.25)">
			<title>Dynamic connector.76</title>
			<path d="M9 258.75 L9 267.73" class="st9"/>
		</g>
		<g id="shape77-38" v:mID="77" v:groupContext="shape" v:layerMember="0" transform="translate(494.75,-238.75)">
			<title>Dynamic connector.77</title>
			<path d="M9 258.75 L9 267.73" class="st9"/>
		</g>
		<g id="shape78-43" v:mID="78" v:groupContext="shape" transform="translate(476.75,-108.25)">
			<title>Rectangle.78</title>
			<desc>tree</desc>
			<v:userDefs>
				<v:ud v:nameU="visVersion" v:val="VT0(15):26"/>
			</v:userDefs>
			<v:textBlock v:margins="rect(4,4,4,4)"/>
			<v:textRect cx="27" cy="247.5" width="54" height="18"/>
			<rect x="0" y="238.5" width="54" height="18" rx="9" ry="9" class="st10"/>
			<text x="18.46" y="250.5" class="st5" v:langID="1042"><v:paragraph v:horizAlign="1"/><v:tabList/>tree</text>		</g>
		<g id="shape79-46" v:mID="79" v:groupContext="shape" transform="translate(378.875,-67.75)">
			<title>Rectangle.79</title>
			<desc>blob</desc>
			<v:userDefs>
				<v:ud v:nameU="visVersion" v:val="VT0(15):26"/>
			</v:userDefs>
			<v:textBlock v:margins="rect(4,4,4,4)"/>
			<v:textRect cx="27" cy="247.5" width="54" height="18"/>
			<rect x="0" y="238.5" width="54" height="18" rx="9" ry="9" class="st11"/>
			<text x="17.72" y="250.5" class="st3" v:langID="1042"><v:paragraph v:horizAlign="1"/><v:tabList/>blob</text>		</g>
		<g id="shape80-49" v:mID="80" v:groupContext="shape" transform="translate(444.125,-67.75)">
			<title>Rectangle.80</title>
			<desc>blob</desc>
			<v:userDefs>
				<v:ud v:nameU="visVersion" v:val="VT0(15):26"/>
			</v:userDefs>
			<v:textBlock v:margins="rect(4,4,4,4)"/>
			<v:textRect cx="27" cy="247.5" width="54" height="18"/>
			<rect x="0" y="238.5" width="54" height="18" rx="9" ry="9" class="st11"/>
			<text x="17.72" y="250.5" class="st3" v:langID="1042"><v:paragraph v:horizAlign="1"/><v:tabList/>blob</text>		</g>
		<g id="shape81-52" v:mID="81" v:groupContext="shape" transform="translate(509.375,-67.75)">
			<title>Rectangle.81</title>
			<desc>blob</desc>
			<v:userDefs>
				<v:ud v:nameU="visVersion" v:val="VT0(15):26"/>
			</v:userDefs>
			<v:textBlock v:margins="rect(4,4,4,4)"/>
			<v:textRect cx="27" cy="247.5" width="54" height="18"/>
			<rect x="0" y="238.5" width="54" height="18" rx="9" ry="9" class="st11"/>
			<text x="17.72" y="250.5" class="st3" v:langID="1042"><v:paragraph v:horizAlign="1"/><v:tabList/>blob</text>		</g>
		<g id="shape82-55" v:mID="82" v:groupContext="shape" transform="translate(574.625,-67.75)">
			<title>Rectangle.82</title>
			<desc>tree</desc>
			<v:userDefs>
				<v:ud v:nameU="visVersion" v:val="VT0(15):26"/>
			</v:userDefs>
			<v:textBlock v:margins="rect(4,4,4,4)"/>
			<v:textRect cx="27" cy="247.5" width="54" height="18"/>
			<rect x="0" y="238.5" width="54" height="18" rx="9" ry="9" class="st10"/>
			<text x="18.46" y="250.5" class="st5" v:langID="1042"><v:paragraph v:horizAlign="1"/><v:tabList/>tree</text>		</g>
		<g id="shape83-58" v:mID="83" v:groupContext="shape" transform="translate(574.625,-36.25)">
			<title>Rectangle.83</title>
			<desc>blob</desc>
			<v:userDefs>
				<v:ud v:nameU="visVersion" v:val="VT0(15):26"/>
			</v:userDefs>
			<v:textBlock v:margins="rect(4,4,4,4)"/>
			<v:textRect cx="27" cy="247.5" width="54" height="18"/>
			<rect x="0" y="238.5" width="54" height="18" rx="9" ry="9" class="st11"/>
			<text x="17.72" y="250.5" class="st3" v:langID="1042"><v:paragraph v:horizAlign="1"/><v:tabList/>blob</text>		</g>
		<g id="shape84-61" v:mID="84" v:groupContext="shape" v:layerMember="0" transform="translate(494.75,-173.5)">
			<title>Dynamic connector.84</title>
			<path d="M9 256.5 L9 299.23" class="st9"/>
		</g>
		<g id="shape85-66" v:mID="85" v:groupContext="shape" transform="translate(332.75,-142)">
			<title>Rectangle.85</title>
			<desc>commit</desc>
			<v:userDefs>
				<v:ud v:nameU="visVersion" v:val="VT0(15):26"/>
			</v:userDefs>
			<v:textBlock v:margins="rect(4,4,4,4)"/>
			<v:textRect cx="27" cy="247.5" width="54" height="18"/>
			<rect x="0" y="238.5" width="54" height="18" rx="9" ry="9" class="st12"/>
			<text x="11.12" y="250.5" class="st5" v:langID="1042"><v:paragraph v:horizAlign="1"/><v:tabList/>commit</text>		</g>
		<g id="shape89-69" v:mID="89" v:groupContext="shape" transform="translate(238.25,-142)">
			<title>Rectangle.89</title>
			<desc>commit</desc>
			<v:userDefs>
				<v:ud v:nameU="visVersion" v:val="VT0(15):26"/>
			</v:userDefs>
			<v:textBlock v:margins="rect(4,4,4,4)"/>
			<v:textRect cx="27" cy="247.5" width="54" height="18"/>
			<rect x="0" y="238.5" width="54" height="18" rx="9" ry="9" class="st12"/>
			<text x="11.12" y="250.5" class="st5" v:langID="1042"><v:paragraph v:horizAlign="1"/><v:tabList/>commit</text>		</g>
		<g id="shape90-72" v:mID="90" v:groupContext="shape" transform="translate(96.5,-173.5)">
			<title>Rectangle.90</title>
			<desc>commit</desc>
			<v:userDefs>
				<v:ud v:nameU="visVersion" v:val="VT0(15):26"/>
			</v:userDefs>
			<v:textBlock v:margins="rect(4,4,4,4)"/>
			<v:textRect cx="27" cy="247.5" width="54" height="18"/>
			<rect x="0" y="238.5" width="54" height="18" rx="9" ry="9" class="st2"/>
			<text x="11.12" y="250.5" class="st3" v:langID="1042"><v:paragraph v:horizAlign="1"/><v:tabList/>commit</text>		</g>
		<g id="shape91-75" v:mID="91" v:groupContext="shape" v:layerMember="0" transform="translate(150.5,-173.5)">
			<title>Dynamic connector.91</title>
			<path d="M4.16 247.5 L4.52 247.5 L40.5 247.5" class="st7"/>
		</g>
		<g id="shape92-80" v:mID="92" v:groupContext="shape" v:layerMember="0" transform="translate(150.5,-182.5)">
			<title>Dynamic connector.92</title>
			<path d="M4.16 256.5 L4.52 256.5 L10.12 256.5 A10.125 10.125 0 0 1 20.25 266.62 L20.25 270 A18 18 -180 0 0 38.25 288
						 L87.75 288" class="st7"/>
		</g>
		<g id="shape93-85" v:mID="93" v:groupContext="shape" v:layerMember="0" transform="translate(292.25,-142)">
			<title>Dynamic connector.93</title>
			<path d="M4.16 247.5 L4.52 247.5 L40.5 247.5" class="st7"/>
		</g>
		<g id="shape94-90" v:mID="94" v:groupContext="shape" v:layerMember="0" transform="translate(386.75,-151)">
			<title>Dynamic connector.94</title>
			<desc>parent</desc>
			<v:textBlock v:margins="rect(4,4,4,4)"/>
			<v:textRect cx="36" cy="248.625" width="50" height="20.0036"/>
			<path d="M4.16 256.5 L4.52 256.5 L56.25 256.5 A15.75 15.75 -180 0 0 72 240.75 L72 234 A9 9 0 0 1 81 225 L90 225"
					class="st7"/>
			<rect v:rectContext="textBkgnd" x="22.1377" y="242.625" width="27.7245" height="12.0001" class="st13"/>
			<text x="22.14" y="251.63" class="st5" v:langID="1042"><v:paragraph v:horizAlign="1"/><v:tabList/>parent</text>		</g>
		<g id="shape75-97" v:mID="75" v:groupContext="shape" v:layerMember="0" transform="translate(436.25,-173.5)">
			<title>Dynamic connector.75</title>
			<desc>parent</desc>
			<v:textBlock v:margins="rect(4,4,4,4)"/>
			<v:textRect cx="21.375" cy="239.625" width="50" height="20.0036"/>
			<path d="M4.16 247.5 L4.52 247.5 L40.5 247.5" class="st7"/>
			<rect v:rectContext="textBkgnd" x="7.51268" y="233.625" width="27.7245" height="12.0001" class="st13"/>
			<text x="7.51" y="242.63" class="st5" v:langID="1042"><v:paragraph v:horizAlign="1"/><v:tabList/>parent</text>		</g>
		<g id="shape97-104" v:mID="97" v:groupContext="shape" v:layerMember="0" transform="translate(503.75,-108.25)">
			<title>Dynamic connector.97</title>
			<path d="M0 256.5 L0 260.62 A4.125 4.125 0 0 1 -4.12 264.75 L-90.75 264.75 A7.125 7.125 -180 0 0 -97.87 271.87 L-97.87
						 274.48" class="st9"/>
		</g>
		<g id="shape98-109" v:mID="98" v:groupContext="shape" v:layerMember="0" transform="translate(503.75,-108.25)">
			<title>Dynamic connector.98</title>
			<path d="M0 256.5 L0 260.62 A4.125 4.125 0 0 1 -4.12 264.75 L-25.5 264.75 A7.125 7.125 -180 0 0 -32.62 271.87 L-32.62
						 274.48" class="st9"/>
		</g>
		<g id="shape99-114" v:mID="99" v:groupContext="shape" v:layerMember="0" transform="translate(503.75,-108.25)">
			<title>Dynamic connector.99</title>
			<path d="M0 256.5 L0 260.81 A4.3125 4.3125 -180 0 0 4.31 265.12 L25.69 265.12 A6.9375 6.9375 0 0 1 32.62 272.06 L32.62
						 274.48" class="st9"/>
		</g>
		<g id="shape100-119" v:mID="100" v:groupContext="shape" v:layerMember="0" transform="translate(503.75,-108.25)">
			<title>Dynamic connector.100</title>
			<path d="M0 256.5 L0 260.81 A4.3125 4.3125 -180 0 0 4.31 265.12 L90.94 265.12 A6.9375 6.9375 0 0 1 97.87 272.06 L97.87
						 274.48" class="st9"/>
		</g>
		<g id="shape101-124" v:mID="101" v:groupContext="shape" v:layerMember="0" transform="translate(592.625,-70)">
			<title>Dynamic connector.101</title>
			<path d="M9 258.75 L9 267.73" class="st9"/>
		</g>
		<g id="shape102-129" v:mID="102" v:groupContext="shape" transform="translate(382.25,-196)">
			<title>Sheet.102</title>
			<desc>HEAD^ = HEAD^1 = HEAD~1</desc>
			<v:textBlock v:margins="rect(4,4,4,4)"/>
			<v:textRect cx="27" cy="238.5" width="54" height="36"/>
			<rect x="0" y="220.5" width="54" height="36" class="st14"/>
			<text x="4" y="230.4" class="st15" v:langID="1042"><v:paragraph/><v:tabList/>HEAD^<v:newlineChar/><tspan x="4"
						dy="1.2em" class="st16">= HEAD^1<v:newlineChar/></tspan><tspan x="4" dy="1.2em" class="st16">= </tspan><tspan
						class="st17">HEAD~1</tspan></text>		</g>
		<g id="shape105-135" v:mID="105" v:groupContext="shape" transform="translate(238.25,-112.75)">
			<title>Sheet.105</title>
			<desc>HEAD^2^ = HEAD^2^1</desc>
			<v:textBlock v:margins="rect(4,4,4,4)"/>
			<v:textRect cx="27" cy="243" width="54" height="27"/>
			<rect x="0" y="229.5" width="54" height="27" class="st14"/>
			<text x="4" y="240.3" class="st18" v:langID="1042"><v:paragraph/><v:tabList/>HEAD^2^<v:newlineChar/><tspan x="4"
						dy="1.2em" class="st16">= HEAD^2^1</tspan></text>		</g>
		<g id="shape106-139" v:mID="106" v:groupContext="shape" transform="translate(285.5,-196)">
			<title>Sheet.106</title>
			<desc>HEAD^^ = HEAD^1^1 = HEAD~2</desc>
			<v:textBlock v:margins="rect(4,4,4,4)"/>
			<v:textRect cx="27" cy="238.5" width="54" height="36"/>
			<rect x="0" y="220.5" width="54" height="36" class="st14"/>
			<text x="4" y="230.4" class="st15" v:langID="1042"><v:paragraph/><v:tabList/>HEAD^^<v:newlineChar/><tspan x="4"
						dy="1.2em" class="st16">= HEAD^1^1<v:newlineChar/></tspan><tspan x="4" dy="1.2em" class="st16">= </tspan><tspan
						class="st17">HEAD~2</tspan></text>		</g>
		<g id="shape107-145" v:mID="107" v:groupContext="shape" transform="translate(332.75,-120.625)">
			<title>Sheet.107</title>
			<desc>HEAD^2</desc>
			<v:textBlock v:margins="rect(4,4,4,4)"/>
			<v:textRect cx="27" cy="245.812" width="54" height="21.375"/>
			<rect x="0" y="235.125" width="54" height="21.375" class="st14"/>
			<text x="4" y="248.51" class="st18" v:langID="1042"><v:paragraph/><v:tabList/>HEAD^2</text>		</g>
		<g id="shape108-148" v:mID="108" v:groupContext="shape" transform="translate(195.5,-196)">
			<title>Sheet.108</title>
			<desc>HEAD^^^ = HEAD~3</desc>
			<v:textBlock v:margins="rect(4,4,4,4)"/>
			<v:textRect cx="27" cy="243" width="54" height="27"/>
			<rect x="0" y="229.5" width="54" height="27" class="st14"/>
			<text x="4" y="240.3" class="st15" v:langID="1042"><v:paragraph/><v:tabList/>HEAD^^^<v:newlineChar/><tspan x="4"
						dy="1.2em" class="st16">= </tspan><tspan class="st17">HEAD~3</tspan></text>		</g>
		<g id="shape109-153" v:mID="109" v:groupContext="shape" transform="translate(96.5,-196)">
			<title>Sheet.109</title>
			<desc>HEAD^^^^ = HEAD~4</desc>
			<v:textBlock v:margins="rect(4,4,4,4)"/>
			<v:textRect cx="27" cy="243" width="54" height="27"/>
			<rect x="0" y="229.5" width="54" height="27" class="st14"/>
			<text x="4" y="240.3" class="st15" v:langID="1042"><v:paragraph/><v:tabList/>HEAD^^^^<v:newlineChar/><tspan x="4"
						dy="1.2em" class="st16">= </tspan><tspan class="st17">HEAD~4</tspan></text>		</g>
		<g id="shape112-158" v:mID="112" v:groupContext="shape" transform="translate(191,-70)">
			<title>Rectangle.112</title>
			<desc>commit</desc>
			<v:userDefs>
				<v:ud v:nameU="visVersion" v:val="VT0(15):26"/>
			</v:userDefs>
			<v:textBlock v:margins="rect(4,4,4,4)"/>
			<v:textRect cx="27" cy="247.5" width="54" height="18"/>
			<rect x="0" y="238.5" width="54" height="18" rx="9" ry="9" class="st2"/>
			<text x="11.12" y="250.5" class="st3" v:langID="1042"><v:paragraph v:horizAlign="1"/><v:tabList/>commit</text>		</g>
		<g id="shape113-161" v:mID="113" v:groupContext="shape" v:layerMember="0" transform="translate(245,-79)">
			<title>Dynamic connector.113</title>
			<path d="M4.16 256.5 L4.52 256.5 L9 256.5 A9 9 -180 0 0 18 247.5 L18 247.5 A18 18 -180 0 0 0 229.5 L-148.5 229.5 A18
						 18 0 0 1 -166.5 211.5 L-166.5 162 A9 9 0 0 1 -157.5 153 L-148.5 153" class="st7"/>
		</g>
		<g id="shape117-166" v:mID="117" v:groupContext="shape" transform="translate(96.5,-70)">
			<title>Rectangle.117</title>
			<desc>commit</desc>
			<v:userDefs>
				<v:ud v:nameU="visVersion" v:val="VT0(15):26"/>
			</v:userDefs>
			<v:textBlock v:margins="rect(4,4,4,4)"/>
			<v:textRect cx="27" cy="247.5" width="54" height="18"/>
			<rect x="0" y="238.5" width="54" height="18" rx="9" ry="9" class="st2"/>
			<text x="11.12" y="250.5" class="st3" v:langID="1042"><v:paragraph v:horizAlign="1"/><v:tabList/>commit</text>		</g>
		<g id="shape118-169" v:mID="118" v:groupContext="shape" v:layerMember="0" transform="translate(150.5,-70)">
			<title>Dynamic connector.118</title>
			<path d="M4.16 247.5 L4.52 247.5 L40.5 247.5" class="st7"/>
		</g>
		<g id="shape119-174" v:mID="119" v:groupContext="shape" transform="translate(191,-2.5)">
			<title>Rectangle.114</title>
			<desc>commit</desc>
			<v:userDefs>
				<v:ud v:nameU="visVersion" v:val="VT0(15):26"/>
			</v:userDefs>
			<v:textBlock v:margins="rect(4,4,4,4)"/>
			<v:textRect cx="27" cy="247.5" width="54" height="18"/>
			<rect x="0" y="238.5" width="54" height="18" rx="9" ry="9" class="st19"/>
			<text x="11.12" y="250.5" class="st5" v:langID="1042"><v:paragraph v:horizAlign="1"/><v:tabList/>commit</text>		</g>
		<g id="shape120-177" v:mID="120" v:groupContext="shape" v:layerMember="0" transform="translate(150.5,-79)">
			<title>Dynamic connector.115</title>
			<path d="M4.16 256.5 L4.52 256.5 L9 256.5 A9 9 0 0 1 18 265.5 L18 312.75 A11.25 11.25 -180 0 0 29.25 324 L40.5 324"
					class="st7"/>
		</g>
		<g id="shape121-182" v:mID="121" v:groupContext="shape" transform="translate(285.5,-2.5)">
			<title>Rectangle.121</title>
			<desc>commit</desc>
			<v:userDefs>
				<v:ud v:nameU="visVersion" v:val="VT0(15):26"/>
			</v:userDefs>
			<v:textBlock v:margins="rect(4,4,4,4)"/>
			<v:textRect cx="27" cy="247.5" width="54" height="18"/>
			<rect x="0" y="238.5" width="54" height="18" rx="9" ry="9" class="st19"/>
			<text x="11.12" y="250.5" class="st5" v:langID="1042"><v:paragraph v:horizAlign="1"/><v:tabList/>commit</text>		</g>
		<g id="shape122-185" v:mID="122" v:groupContext="shape" v:layerMember="0" transform="translate(245,-2.5)">
			<title>Dynamic connector.122</title>
			<desc>parent</desc>
			<v:textBlock v:margins="rect(4,4,4,4)"/>
			<v:textRect cx="21.375" cy="239.625" width="50" height="20.0036"/>
			<path d="M4.16 247.5 L4.52 247.5 L40.5 247.5" class="st7"/>
			<rect v:rectContext="textBkgnd" x="7.51266" y="233.625" width="27.7245" height="12.0001" class="st13"/>
			<text x="7.51" y="242.63" class="st5" v:langID="1042"><v:paragraph v:horizAlign="1"/><v:tabList/>parent</text>		</g>
		<g id="shape123-192" v:mID="123" v:groupContext="shape" transform="translate(285.5,-36.25)">
			<title>Rectangle.123</title>
			<desc>feature</desc>
			<v:userDefs>
				<v:ud v:nameU="visVersion" v:val="VT0(15):26"/>
			</v:userDefs>
			<v:textBlock v:margins="rect(4,4,4,4)"/>
			<v:textRect cx="27" cy="247.5" width="54" height="18"/>
			<rect x="0" y="238.5" width="54" height="18" rx="9" ry="9" class="st4"/>
			<text x="11.72" y="250.5" class="st5" v:langID="1042"><v:paragraph v:horizAlign="1"/><v:tabList/>feature</text>		</g>
		<g id="shape124-195" v:mID="124" v:groupContext="shape" transform="translate(285.5,-67.75)">
			<title>Rectangle.124</title>
			<desc>HEAD</desc>
			<v:userDefs>
				<v:ud v:nameU="visVersion" v:val="VT0(15):26"/>
			</v:userDefs>
			<v:textBlock v:margins="rect(4,4,4,4)"/>
			<v:textRect cx="27" cy="247.5" width="54" height="18"/>
			<rect x="0" y="238.5" width="54" height="18" rx="9" ry="9" class="st6"/>
			<text x="15.23" y="250.5" class="st5" v:langID="1042"><v:paragraph v:horizAlign="1"/><v:tabList/>HEAD</text>		</g>
		<g id="shape125-198" v:mID="125" v:groupContext="shape" v:layerMember="0" transform="translate(303.5,-70)">
			<title>Dynamic connector.125</title>
			<path d="M9 258.75 L9 267.73" class="st9"/>
		</g>
		<g id="shape126-203" v:mID="126" v:groupContext="shape" v:layerMember="0" transform="translate(303.5,-37.375)">
			<title>Dynamic connector.126</title>
			<path d="M9 257.62 L9 268.85" class="st9"/>
		</g>
		<g id="shape129-208" v:mID="129" v:groupContext="shape" transform="translate(534.125,-173.5)">
			<title>Right Parenthesis</title>
			<v:userDefs>
				<v:ud v:nameU="visVersion" v:prompt="" v:val="VT0(15):26"/>
			</v:userDefs>
			<path d="M0 256.5 A10.8053 2.2382 -180 0 0 10.13 254.82 L10.13 241.4 A10.8053 2.2382 -180 0 0 0 239.72" class="st20"/>
		</g>
		<g id="shape130-211" v:mID="130" v:groupContext="shape" transform="translate(544.25,-170.639)">
			<title>Sheet.130</title>
			<desc>master branch</desc>
			<v:textBlock v:margins="rect(4,4,4,4)"/>
			<v:textRect cx="41.0625" cy="245.25" width="82.13" height="22.5"/>
			<rect x="0" y="234" width="82.125" height="22.5" class="st14"/>
			<text x="4.97" y="248.85" class="st21" v:langID="1042"><v:paragraph v:horizAlign="1"/><v:tabList/>master branch</text>		</g>
		<g id="shape132-214" v:mID="132" v:groupContext="shape" transform="translate(342.875,-3.11084)">
			<title>Right Parenthesis.132</title>
			<v:userDefs>
				<v:ud v:nameU="visVersion" v:prompt="" v:val="VT0(15):26"/>
			</v:userDefs>
			<path d="M0 256.5 A10.8053 2.2382 -180 0 0 10.13 254.82 L10.13 241.4 A10.8053 2.2382 -180 0 0 0 239.72" class="st22"/>
		</g>
		<g id="shape133-217" v:mID="133" v:groupContext="shape" transform="translate(353,-0.25)">
			<title>Sheet.133</title>
			<desc>feature branch</desc>
			<v:textBlock v:margins="rect(4,4,4,4)"/>
			<v:textRect cx="41.0625" cy="245.25" width="82.13" height="22.5"/>
			<rect x="0" y="234" width="82.125" height="22.5" class="st14"/>
			<text x="4.11" y="248.85" class="st23" v:langID="1042"><v:paragraph v:horizAlign="1"/><v:tabList/>feature branch</text>		</g>
		<g id="shape134-220" v:mID="134" v:groupContext="shape" transform="translate(2,-70)">
			<title>Rectangle.134</title>
			<desc>commit</desc>
			<v:userDefs>
				<v:ud v:nameU="visVersion" v:val="VT0(15):26"/>
			</v:userDefs>
			<v:textBlock v:margins="rect(4,4,4,4)"/>
			<v:textRect cx="27" cy="247.5" width="54" height="18"/>
			<rect x="0" y="238.5" width="54" height="18" rx="9" ry="9" class="st2"/>
			<text x="11.12" y="250.5" class="st3" v:langID="1042"><v:paragraph v:horizAlign="1"/><v:tabList/>commit</text>		</g>
		<g id="shape135-223" v:mID="135" v:groupContext="shape" v:layerMember="0" transform="translate(56,-70)">
			<title>Dynamic connector.135</title>
			<path d="M4.16 247.5 L4.52 247.5 L40.5 247.5" class="st7"/>
		</g>
	</g>
</svg>
